<?xml version="1.0" standalone="no"?>
<!DOCTYPE svg PUBLIC "-//W3C//DTD SVG 20010904//EN"
 "http://www.w3.org/TR/2001/REC-SVG-20010904/DTD/svg10.dtd">
<svg version="1.0" xmlns="http://www.w3.org/2000/svg"
 width="700.000000pt" height="700.000000pt" viewBox="0 0 700.000000 700.000000"
 preserveAspectRatio="xMidYMid meet">
<metadata>
Created by potrace 1.14, written by Peter Selinger 2001-2017
</metadata>
<g transform="translate(0.000000,700.000000) scale(0.100000,-0.100000)"
fill="#000000" stroke="none">
<path d="M36 4522 c17 -15 49 -40 70 -57 21 -16 202 -162 403 -322 l366 -293
788 0 787 0 0 -174 0 -174 480 -481 480 -480 1 47 c0 26 0 400 1 831 l0 783
-173 174 -174 174 -1530 0 -1530 0 31 -28z"/>
<path d="M3761 4376 l-173 -174 0 -774 c1 -425 1 -799 1 -830 l1 -58 480 481
480 480 0 174 0 175 788 0 787 0 165 133 c91 72 220 175 285 227 66 52 122 97
125 100 3 3 72 58 153 123 l148 117 -1533 0 -1533 0 -174 -174z"/>
<path d="M1060 3670 c0 -3 471 -476 1048 -1051 l1047 -1046 348 1 347 1 1045
1045 c575 575 1045 1047 1045 1050 0 3 -234 5 -520 5 l-520 0 -700 -700 -700
-700 -700 700 -700 700 -520 0 c-286 0 -520 -2 -520 -5z"/>
</g>
</svg>
